<?xml version="1.0" encoding="utf-8"?>
<!-- Generator: Adobe Illustrator 22.0.0, SVG Export Plug-In . SVG Version: 6.00 Build 0)  -->
<svg version="1.1" id="OBJECTS" xmlns="http://www.w3.org/2000/svg" xmlns:xlink="http://www.w3.org/1999/xlink" x="0px" y="0px"
	 viewBox="0 0 433 269" style="enable-background:new 0 0 433 269;" xml:space="preserve">
<style type="text/css">
	.st0{fill:none;stroke:#FFFFFF;stroke-width:0.1529;stroke-miterlimit:10;}
	.st1{fill:#FFFFFF;}
	.st2{fill:url(#SVGID_1_);}
	.st3{clip-path:url(#SVGID_3_);}
	.st4{filter:url(#Adobe_OpacityMaskFilter);}
	.st5{filter:url(#Adobe_OpacityMaskFilter_1_);}
	.st6{mask:url(#SVGID_4_);fill:url(#SVGID_5_);}
	.st7{opacity:0.7;fill:url(#SVGID_6_);}
	.st8{opacity:0.7;}
	.st9{opacity:0.7;fill:url(#SVGID_7_);}
	.st10{fill:none;}
</style>
<path class="st0" d="M114.1,128.1H66.2c-3.7,0-6.7-3-6.7-6.7l0,0c0-3.7,3-6.7,6.7-6.7h47.9c3.7,0,6.7,3,6.7,6.7l0,0
	C120.7,125.1,117.8,128.1,114.1,128.1z"/>
<path class="st0" d="M182.9,133.2h-22.4H135H66.2c-3.7,0-6.7,3-6.7,6.7c0,3.7,3,6.7,6.7,6.7H135h25.5h22.4c3.7,0,6.7-3,6.7-6.7
	C189.5,136.2,186.5,133.2,182.9,133.2z"/>
<g>
	<image style="overflow:visible;" width="505" height="342" xlink:href="96959567.png"  transform="matrix(1 0 0 1 -29 -30)">
	</image>
</g>
<g>
	<path class="st1" d="M425.9,269H5.4C3,269,1,267,1,264.5V9.1c0-4.6,3.7-8.4,8.4-8.4h414.6c4.9,0,8.9,4,8.9,8.9v252.4
		C432.8,265.9,429.7,269,425.9,269z"/>
</g>
<g>
	<linearGradient id="SVGID_1_" gradientUnits="userSpaceOnUse" x1="0.9536" y1="134.4834" x2="432.8073" y2="134.4834">
		<stop  offset="0" style="stop-color:#723D97"/>
		<stop  offset="0.486" style="stop-color:#2F82BC"/>
		<stop  offset="1" style="stop-color:#6CC8C3"/>
	</linearGradient>
	<path class="st2" d="M426.1,0.7H7.3C3.8,0.7,1,3.6,1,7v257.5c0,1.5,0.8,2.9,1.9,3.7L432.8,92.5v-85C432.8,3.8,429.8,0.7,426.1,0.7z
		"/>
	<g>
		<defs>
			<path id="SVGID_2_" d="M426.1,0.7H7.3C3.8,0.7,1,3.6,1,7v257.5c0,1.5,0.8,2.9,1.9,3.7L432.8,92.5v-85
				C432.8,3.8,429.8,0.7,426.1,0.7z"/>
		</defs>
		<clipPath id="SVGID_3_">
			<use xlink:href="#SVGID_2_"  style="overflow:visible;"/>
		</clipPath>
		<g class="st3">
			<g>
				<defs>
					<filter id="Adobe_OpacityMaskFilter" filterUnits="userSpaceOnUse" x="-14.1" y="-107.6" width="491.2" height="361.8">
						<feFlood  style="flood-color:white;flood-opacity:1" result="back"/>
						<feBlend  in="SourceGraphic" in2="back" mode="normal"/>
					</filter>
				</defs>
				<mask maskUnits="userSpaceOnUse" x="-14.1" y="-107.6" width="491.2" height="361.8" id="SVGID_4_">
					<g class="st4">
						<defs>
							<filter id="Adobe_OpacityMaskFilter_1_" filterUnits="userSpaceOnUse" x="-14.1" y="-107.6" width="491.2" height="361.8">
								<feFlood  style="flood-color:white;flood-opacity:1" result="back"/>
								<feBlend  in="SourceGraphic" in2="back" mode="normal"/>
							</filter>
						</defs>
						<mask maskUnits="userSpaceOnUse" x="-14.1" y="-107.6" width="491.2" height="361.8" id="SVGID_4_">
							<g class="st5">
							</g>
						</mask>
						<linearGradient id="SVGID_5_" gradientUnits="userSpaceOnUse" x1="231.507" y1="254.2651" x2="231.507" y2="-107.5829">
							<stop  offset="0" style="stop-color:#000000"/>
							<stop  offset="1" style="stop-color:#FFFFFF"/>
						</linearGradient>
						<path class="st6" d="M395.2-4.3c-43.2,0-75.3-37.3-125-37.3c-63.5,0-77.7,123.5-120.6,123.5c-41.7,0-48.9-85.7-81.9-85.7
							C43.1-3.8,13.3,45-14.1,126.9v127.3h491.2v-361.8C458.4-65.1,437.3-4.3,395.2-4.3z"/>
					</g>
				</mask>
				<linearGradient id="SVGID_6_" gradientUnits="userSpaceOnUse" x1="-1.508" y1="147.9798" x2="413.1584" y2="83.3131">
					<stop  offset="0.192" style="stop-color:#662D8C"/>
					<stop  offset="0.9956" style="stop-color:#6CC8C3"/>
				</linearGradient>
				<path class="st7" d="M395.2-4.3c-43.2,0-75.3-37.3-125-37.3c-63.5,0-77.7,123.5-120.6,123.5c-41.7,0-48.9-85.7-81.9-85.7
					C43.1-3.8,13.3,45-14.1,126.9v127.3h491.2v-361.8C458.4-65.1,437.3-4.3,395.2-4.3z"/>
			</g>
			<g>
				<g class="st8">
					<linearGradient id="SVGID_7_" gradientUnits="userSpaceOnUse" x1="224.6663" y1="335.5686" x2="224.6663" y2="101.6546">
						<stop  offset="0.3637" style="stop-color:#00FFFF;stop-opacity:0"/>
						<stop  offset="1" style="stop-color:#00FFFF"/>
					</linearGradient>
					<path class="st9" d="M446.6,107.8c-7.9,9.9-16.9,21.1-28.2,29.7c-12.9,9.9-26.8,14.7-42.5,14.7c-19.3,0-36-4.2-53.7-8.7
						c-18.7-4.7-38.1-9.6-61.8-9.6c-32,0-50.6,18.4-67.1,34.7c-13.5,13.4-26.3,26-44.4,26c-20.6,0-31.9-11.7-42.9-23
						c-9.5-9.8-18.5-19.1-32.7-19.1c-22,0-48.9,22.6-74.1,62.1c-0.4,1.2-0.8,2.3-1.2,3.5l-0.4-0.1v117.7h453.8V101.7
						C449.9,103.6,448.3,105.7,446.6,107.8z"/>
				</g>
			</g>
		</g>
	</g>
</g>
<rect id="_x3C_Slice_x3E_" y="1" class="st10" width="433" height="269"/>
</svg>
